# xmcd
#
# Track frame offsets:
#	150
#	14427
#	28026
#	45972
#	58603
#	78085
#	101399
#	117221
#	132703
#	149664
#	169208
#	185554
#	202389
#	219614
#	231773
#	246517
#	263796
#
# Disc length: 3730 seconds
#
# Revision: 0
# Processed by: cddbd v1.5.2PL0 Copyright (c) Steve Scherf et al.
# Submitted via: audiograbber 1.83.01
#
DISCID=fe0e9011
DTITLE=Celia - C D # 2
DYEAR=1900
DGENRE=
TTITLE0=Lady Marmalaide
TTITLE1=Money Money Money
TTITLE2=My sister
TTITLE3=Natural Woman
TTITLE4=Neither One Of Us
TTITLE5=Paris
TTITLE6=Redneck Woman
TTITLE7=Room To Breathe
TTITLE8=Rumor Has It
TTITLE9=Stealing Kisses
TTITLE10=Strong Enough
TTITLE11=Suds In The Bucket
TTITLE12=Super Trooper
TTITLE13=Sweet Dreams
TTITLE14=take It Back
TTITLE15=The Climb
TTITLE16=We're So Good Together
EXTD=
EXTT0=
EXTT1=
EXTT2=
EXTT3=
EXTT4=
EXTT5=
EXTT6=
EXTT7=
EXTT8=
EXTT9=
EXTT10=
EXTT11=
EXTT12=
EXTT13=
EXTT14=
EXTT15=
EXTT16=
PLAYORDER=
